<svg width="35" height="34" viewBox="0 0 35 34" fill="none" xmlns="http://www.w3.org/2000/svg">
<path d="M15.1663 24.6668L26.9163 12.9168L24.583 10.5835L15.1663 20.0002L10.4163 15.2502L8.08301 17.5835L15.1663 24.6668ZM17.4997 33.6668C15.1941 33.6668 13.0275 33.2293 10.9997 32.3543C8.9719 31.4793 7.20801 30.2918 5.70801 28.7918C4.20801 27.2918 3.02051 25.5279 2.14551 23.5002C1.27051 21.4724 0.833008 19.3057 0.833008 17.0002C0.833008 14.6946 1.27051 12.5279 2.14551 10.5002C3.02051 8.47238 4.20801 6.7085 5.70801 5.2085C7.20801 3.7085 8.9719 2.521 10.9997 1.646C13.0275 0.770996 15.1941 0.333496 17.4997 0.333496C19.8052 0.333496 21.9719 0.770996 23.9997 1.646C26.0275 2.521 27.7913 3.7085 29.2913 5.2085C30.7913 6.7085 31.9788 8.47238 32.8538 10.5002C33.7288 12.5279 34.1663 14.6946 34.1663 17.0002C34.1663 19.3057 33.7288 21.4724 32.8538 23.5002C31.9788 25.5279 30.7913 27.2918 29.2913 28.7918C27.7913 30.2918 26.0275 31.4793 23.9997 32.3543C21.9719 33.2293 19.8052 33.6668 17.4997 33.6668Z" fill="#5B8CB2"/>
</svg>
