<svg width="23" height="17" viewBox="0 0 23 17" fill="none" xmlns="http://www.w3.org/2000/svg">
<path d="M5.72656 16.4957C4.2099 16.4957 2.91406 15.9707 1.83906 14.9207C0.764063 13.8707 0.226562 12.5874 0.226562 11.0707C0.226562 9.7707 0.618229 8.61237 1.40156 7.5957C2.1849 6.57904 3.2099 5.92904 4.47656 5.6457C4.7599 4.4457 5.46823 3.30404 6.60156 2.2207C7.7349 1.13737 8.94323 0.595703 10.2266 0.595703C10.7766 0.595703 11.2474 0.791536 11.6391 1.1832C12.0307 1.57487 12.2266 2.0457 12.2266 2.5957V8.6457L13.8266 7.0957L15.2266 8.4957L11.2266 12.4957L7.22656 8.4957L8.62656 7.0957L10.2266 8.6457V2.5957C8.9599 2.82904 7.97656 3.44154 7.27656 4.4332C6.57656 5.42487 6.22656 6.4457 6.22656 7.4957H5.72656C4.7599 7.4957 3.9349 7.83737 3.25156 8.5207C2.56823 9.20404 2.22656 10.029 2.22656 10.9957C2.22656 11.9624 2.56823 12.7874 3.25156 13.4707C3.9349 14.154 4.7599 14.4957 5.72656 14.4957H17.7266C18.4266 14.4957 19.0182 14.254 19.5016 13.7707C19.9849 13.2874 20.2266 12.6957 20.2266 11.9957C20.2266 11.2957 19.9849 10.704 19.5016 10.2207C19.0182 9.73737 18.4266 9.4957 17.7266 9.4957H16.2266V7.4957C16.2266 6.6957 16.0432 5.94987 15.6766 5.2582C15.3099 4.56654 14.8266 3.97904 14.2266 3.4957V1.1707C15.4599 1.75404 16.4349 2.61654 17.1516 3.7582C17.8682 4.89987 18.2266 6.1457 18.2266 7.4957C19.3766 7.62904 20.3307 8.12487 21.0891 8.9832C21.8474 9.84154 22.2266 10.8457 22.2266 11.9957C22.2266 13.2457 21.7891 14.3082 20.9141 15.1832C20.0391 16.0582 18.9766 16.4957 17.7266 16.4957H5.72656Z" fill="#191C1E"/>
</svg>
