<svg width="24" height="24" viewBox="0 0 24 24" fill="none" xmlns="http://www.w3.org/2000/svg">
<mask id="mask0_3035_2873" style="mask-type:alpha" maskUnits="userSpaceOnUse" x="0" y="0" width="24" height="24">
<rect width="24" height="24" fill="#D9D9D9"/>
</mask>
<g mask="url(#mask0_3035_2873)">
<path d="M5.7627 22.0488C5.2127 22.0488 4.74186 21.853 4.3502 21.4613C3.95853 21.0697 3.7627 20.5988 3.7627 20.0488V4.04883C3.7627 3.49883 3.95853 3.02799 4.3502 2.63633C4.74186 2.24466 5.2127 2.04883 5.7627 2.04883H13.7627L19.7627 8.04883V20.0488C19.7627 20.5988 19.5669 21.0697 19.1752 21.4613C18.7835 21.853 18.3127 22.0488 17.7627 22.0488H5.7627ZM12.7627 9.04883V4.04883H5.7627V20.0488H17.7627V9.04883H12.7627Z" fill="#4A4A4A"/>
</g>
</svg>
